<svg width="3288" height="720" viewBox="0 0 3288 720" fill="none" xmlns="http://www.w3.org/2000/svg">
<rect width="720" height="720" rx="101.25" fill="#F63E8C"/>
<rect x="130" y="130" width="88" height="460" fill="white"/>
<rect x="130" y="590" width="88" height="460" transform="rotate(-90 130 590)" fill="white"/>
<rect x="590" y="590" width="88" height="460" transform="rotate(-180 590 590)" fill="white"/>
<rect x="590" y="130" width="88" height="314" transform="rotate(90 590 130)" fill="white"/>
<path d="M1169.53 509.708C1177.95 509.708 1184.97 512.516 1190.59 518.13C1196.6 523.745 1199.61 530.763 1199.61 539.185C1199.61 547.607 1196.6 554.625 1190.59 560.24C1184.97 565.855 1177.95 568.662 1169.53 568.662H967.407C958.584 568.662 951.164 565.855 945.149 560.24C939.534 554.224 936.727 546.805 936.727 537.982V178.246C936.727 169.423 939.735 162.204 945.75 156.59C951.766 150.574 959.586 147.566 969.211 147.566C977.232 147.566 984.25 150.574 990.266 156.59C996.683 162.204 999.891 169.423 999.891 178.246V519.935L987.258 509.708H1169.53Z" fill="#F63E8C"/>
<path d="M1505.58 255.904C1514 255.904 1521.02 258.912 1526.63 264.927C1532.65 270.542 1535.66 277.761 1535.66 286.584V444.795C1535.66 486.504 1524.03 519.189 1500.77 542.85C1477.51 566.111 1444.62 577.741 1402.11 577.741C1360 577.741 1327.31 566.111 1304.05 542.85C1281.19 519.189 1269.77 486.504 1269.77 444.795V286.584C1269.77 277.761 1272.57 270.542 1278.19 264.927C1283.8 258.912 1291.02 255.904 1299.84 255.904C1308.27 255.904 1315.28 258.912 1320.9 264.927C1326.91 270.542 1329.92 277.761 1329.92 286.584V444.795C1329.92 470.863 1335.94 490.314 1347.97 503.147C1360.4 515.981 1378.45 522.397 1402.11 522.397C1426.17 522.397 1444.42 515.981 1456.85 503.147C1469.28 490.314 1475.5 470.863 1475.5 444.795V286.584C1475.5 277.761 1478.31 270.542 1483.92 264.927C1489.54 258.912 1496.76 255.904 1505.58 255.904Z" fill="#F63E8C"/>
<path d="M1786.27 250.497C1815.94 250.497 1838.8 257.916 1854.85 272.755C1870.89 287.193 1881.51 306.844 1886.73 331.708L1877.1 328.701L1881.31 319.075C1886.53 308.648 1894.35 298.221 1904.78 287.794C1915.6 276.966 1928.44 268.143 1943.28 261.325C1958.11 254.106 1973.96 250.497 1990.8 250.497C2018.47 250.497 2039.93 256.513 2055.17 268.544C2070.41 280.174 2081.03 296.015 2087.05 316.068C2093.07 335.719 2096.07 357.776 2096.07 382.24V541.655C2096.07 550.478 2093.27 557.897 2087.65 563.913C2082.04 569.527 2074.82 572.334 2065.99 572.334C2057.57 572.334 2050.35 569.527 2044.34 563.913C2038.72 557.897 2035.92 550.478 2035.92 541.655V382.841C2035.92 368.805 2033.91 355.971 2029.9 344.341C2026.29 332.711 2019.67 323.487 2010.05 316.669C2000.83 309.45 1987.99 305.841 1971.55 305.841C1955.91 305.841 1941.87 309.45 1929.44 316.669C1917.41 323.487 1907.98 332.711 1901.17 344.341C1894.35 355.971 1890.94 368.805 1890.94 382.841V541.655C1890.94 550.478 1888.13 557.897 1882.52 563.913C1876.9 569.527 1869.68 572.334 1860.86 572.334C1852.04 572.334 1844.82 569.527 1839.2 563.913C1833.59 557.897 1830.78 550.478 1830.78 541.655V382.24C1830.78 368.203 1828.78 355.37 1824.77 343.74C1821.16 332.109 1814.74 322.885 1805.52 316.068C1796.29 309.25 1783.46 305.841 1767.02 305.841C1751.38 305.841 1737.54 309.25 1725.51 316.068C1713.48 322.885 1704.05 332.109 1697.24 343.74C1690.82 355.37 1687.61 368.203 1687.61 382.24V541.655C1687.61 550.478 1684.6 557.897 1678.59 563.913C1672.97 569.527 1665.95 572.334 1657.53 572.334C1648.71 572.334 1641.49 569.527 1635.88 563.913C1630.26 557.897 1627.45 550.478 1627.45 541.655V286.591C1627.45 277.768 1630.26 270.549 1635.88 264.935C1641.49 258.919 1648.71 255.911 1657.53 255.911C1665.95 255.911 1672.97 258.919 1678.59 264.935C1684.6 270.549 1687.61 277.768 1687.61 286.591V322.083L1676.18 328.701C1678.99 319.878 1683.6 310.854 1690.02 301.63C1696.43 292.406 1704.45 283.984 1714.08 276.364C1724.11 268.744 1735.13 262.528 1747.17 257.716C1759.2 252.903 1772.23 250.497 1786.27 250.497Z" fill="#F63E8C"/>
<path d="M2240.41 541.658C2240.41 550.481 2237.6 557.901 2231.98 563.916C2226.37 569.531 2219.15 572.338 2210.33 572.338C2201.91 572.338 2194.69 569.531 2188.67 563.916C2183.06 557.901 2180.25 550.481 2180.25 541.658V284.188C2180.25 275.365 2183.06 268.147 2188.67 262.532C2194.69 256.516 2201.91 253.509 2210.33 253.509C2219.15 253.509 2226.37 256.516 2231.98 262.532C2237.6 268.147 2240.41 275.365 2240.41 284.188V541.658ZM2209.73 213.805C2198.1 213.805 2189.67 211.8 2184.46 207.79C2179.25 203.378 2176.64 196.159 2176.64 186.133V176.508C2176.64 166.482 2179.45 159.464 2185.06 155.453C2190.68 151.443 2199.1 149.438 2210.33 149.438C2222.36 149.438 2230.98 151.643 2236.19 156.055C2241.41 160.065 2244.01 166.883 2244.01 176.508V186.133C2244.01 196.56 2241.21 203.779 2235.59 207.79C2230.38 211.8 2221.76 213.805 2209.73 213.805Z" fill="#F63E8C"/>
<path d="M2505.85 248.696C2534.33 248.696 2556.39 254.712 2572.03 266.743C2587.67 278.373 2598.5 294.214 2604.51 314.267C2610.93 333.918 2614.14 355.975 2614.14 380.439V541.658C2614.14 550.481 2611.13 557.901 2605.11 563.916C2599.5 569.531 2592.48 572.338 2584.06 572.338C2575.24 572.338 2568.02 569.531 2562.4 563.916C2556.79 557.901 2553.98 550.481 2553.98 541.658V381.04C2553.98 366.603 2551.97 353.769 2547.96 342.54C2543.95 330.91 2536.94 321.686 2526.91 314.868C2517.28 307.649 2503.65 304.04 2486 304.04C2469.56 304.04 2455.12 307.649 2442.69 314.868C2430.26 321.686 2420.43 330.91 2413.21 342.54C2406.4 353.769 2402.99 366.603 2402.99 381.04V541.658C2402.99 550.481 2399.98 557.901 2393.96 563.916C2388.35 569.531 2381.33 572.338 2372.91 572.338C2364.09 572.338 2356.87 569.531 2351.25 563.916C2345.64 557.901 2342.83 550.481 2342.83 541.658V286.595C2342.83 277.772 2345.64 270.553 2351.25 264.938C2356.87 258.923 2364.09 255.915 2372.91 255.915C2381.33 255.915 2388.35 258.923 2393.96 264.938C2399.98 270.553 2402.99 277.772 2402.99 286.595V320.282L2392.16 326.298C2394.97 317.475 2399.78 308.652 2406.6 299.829C2413.82 290.605 2422.44 282.183 2432.46 274.563C2442.49 266.542 2453.72 260.326 2466.15 255.915C2478.58 251.102 2491.82 248.696 2505.85 248.696Z" fill="#F63E8C"/>
<path d="M2767 541.658C2767 550.481 2764.19 557.901 2758.58 563.916C2752.97 569.531 2745.75 572.338 2736.92 572.338C2728.5 572.338 2721.28 569.531 2715.27 563.916C2709.65 557.901 2706.85 550.481 2706.85 541.658V284.188C2706.85 275.365 2709.65 268.147 2715.27 262.532C2721.28 256.516 2728.5 253.508 2736.92 253.508C2745.75 253.508 2752.97 256.516 2758.58 262.532C2764.19 268.147 2767 275.365 2767 284.188V541.658ZM2736.32 213.805C2724.69 213.805 2716.27 211.8 2711.06 207.79C2705.84 203.378 2703.24 196.159 2703.24 186.133V176.508C2703.24 166.482 2706.04 159.464 2711.66 155.453C2717.27 151.443 2725.69 149.438 2736.92 149.438C2748.96 149.438 2757.58 151.643 2762.79 156.055C2768 160.065 2770.61 166.883 2770.61 176.508V186.133C2770.61 196.56 2767.8 203.779 2762.19 207.79C2756.98 211.8 2748.35 213.805 2736.32 213.805Z" fill="#F63E8C"/>
<path d="M2904.32 572.338C2895.9 572.338 2888.68 569.531 2882.66 563.916C2877.05 557.901 2874.24 550.481 2874.24 541.658V157.86C2874.24 149.037 2877.05 141.818 2882.66 136.203C2888.68 130.188 2895.9 127.18 2904.32 127.18C2913.14 127.18 2920.36 130.188 2925.98 136.203C2931.59 141.818 2934.4 149.037 2934.4 157.86V541.658C2934.4 550.481 2931.59 557.901 2925.98 563.916C2920.36 569.531 2913.14 572.338 2904.32 572.338ZM3100.43 254.712C3108.05 254.712 3114.67 257.92 3120.28 264.337C3125.9 270.753 3128.7 277.17 3128.7 283.587C3128.7 291.608 3124.89 299.027 3117.27 305.845L2928.98 474.283L2926.58 405.103L3078.17 264.337C3084.59 257.92 3092.01 254.712 3100.43 254.712ZM3107.65 571.737C3099.23 571.737 3092.01 568.328 3085.99 561.51L2965.68 434.58L3011.4 392.47L3128.7 519.4C3135.12 526.218 3138.33 533.838 3138.33 542.26C3138.33 551.083 3134.72 558.302 3127.5 563.916C3120.68 569.13 3114.06 571.737 3107.65 571.737Z" fill="#F63E8C"/>
</svg>
